<svg xmlns="http://www.w3.org/2000/svg" width="260" height="260" viewBox="0 0 260 260" version="1.1">
	<path d="M 126 40 C 126 40.550, 125.530 41, 124.955 41 C 123.225 41, 119 45.778, 119 47.734 C 119 48.737, 118.100 50.207, 117 51 C 115.900 51.793, 115 53.242, 115 54.221 C 115 55.199, 114.550 56, 114 56 C 113.450 56, 113 57.125, 113 58.500 C 113 59.875, 112.518 61, 111.929 61 C 110.422 61, 108 63.594, 108 65.208 C 108 65.951, 107.100 67.207, 106 68 C 104.900 68.793, 104 70.467, 104 71.721 C 104 72.974, 103.550 74, 103 74 C 102.450 74, 102 74.707, 102 75.571 C 102 77.367, 99.665 80, 98.071 80 C 97.482 80, 97 80.900, 97 82 C 97 83.100, 96.550 84, 96 84 C 95.450 84, 95 85.125, 95 86.500 C 95 87.875, 94.550 89, 94 89 C 93.450 89, 93 89.707, 93 90.571 C 93 91.436, 92.357 92.786, 91.571 93.571 C 90.786 94.357, 89.436 95, 88.571 95 C 87.707 95, 87 95.450, 87 96 C 87 96.550, 85.425 97, 83.500 97 C 81.056 97, 80 97.452, 80 98.500 C 80 99.325, 79.550 100, 79 100 C 78.450 100, 78 100.900, 78 102 C 78 103.100, 77.550 104, 77 104 C 76.450 104, 76 104.900, 76 106 C 76 107.100, 75.550 108, 75 108 C 74.450 108, 74 109.125, 74 110.500 C 74 111.875, 73.530 113, 72.955 113 C 71.455 113, 67 117.663, 67 119.234 C 67 119.962, 66.100 121.207, 65 122 C 63.900 122.793, 63 123.824, 63 124.292 C 63 125.286, 60.438 128, 59.500 128 C 58.348 128, 56 130.823, 56 132.208 C 56 132.951, 55.100 134.207, 54 135 C 52.435 136.128, 52 137.589, 52 141.721 C 52 146.920, 52.046 147, 55 147 C 57.456 147, 58 147.413, 58 149.279 C 58 150.533, 57.100 152.207, 56 153 C 54.900 153.793, 54 155.143, 54 156 C 54 156.857, 53.100 158.207, 52 159 C 50.900 159.793, 50 161.467, 50 162.721 C 50 163.974, 49.550 165, 49 165 C 48.450 165, 48 165.900, 48 167 C 48 168.111, 47.333 169, 46.500 169 C 45.667 169, 45 169.889, 45 171 C 45 172.100, 44.550 173, 44 173 C 43.450 173, 43 175.475, 43 178.500 C 43 181.525, 43.450 184, 44 184 C 44.550 184, 45 184.900, 45 186 C 45 187.111, 45.667 188, 46.500 188 C 47.325 188, 48 188.482, 48 189.071 C 48 190.980, 50.792 193, 53.429 193 C 54.843 193, 56 193.450, 56 194 C 56 194.550, 57.125 195, 58.500 195 C 59.875 195, 61 195.450, 61 196 C 61 196.550, 61.900 197, 63 197 C 64.100 197, 65 197.450, 65 198 C 65 198.550, 66.350 199, 68 199 C 69.650 199, 71 199.450, 71 200 C 71 200.550, 72.125 201, 73.500 201 C 75.056 201, 76 201.567, 76 202.500 C 76 203.500, 77 204, 79 204 C 80.650 204, 82 204.450, 82 205 C 82 205.550, 83.575 206, 85.500 206 C 87.425 206, 89 206.450, 89 207 C 89 207.550, 89.900 208, 91 208 C 92.100 208, 93 208.450, 93 209 C 93 209.550, 93.900 210, 95 210 C 96.100 210, 97 210.450, 97 211 C 97 211.550, 98.575 212, 100.500 212 C 102.425 212, 104 212.450, 104 213 C 104 213.550, 104.900 214, 106 214 C 107.111 214, 108 214.667, 108 215.500 C 108 216.548, 109.056 217, 111.500 217 C 113.425 217, 115 217.450, 115 218 C 115 218.550, 116.350 219, 118 219 C 119.650 219, 121 219.450, 121 220 C 121 220.550, 122.125 221, 123.500 221 C 124.875 221, 126 221.450, 126 222 C 126 222.556, 128.678 223, 132.033 223 C 137.584 223, 138.344 222.723, 141.533 219.533 C 143.440 217.627, 145 215.251, 145 214.254 C 145 213.257, 145.900 211.793, 147 211 C 148.100 210.207, 149 208.758, 149 207.779 C 149 206.801, 149.675 206, 150.500 206 C 151.433 206, 152 205.056, 152 203.500 C 152 202.125, 152.450 201, 153 201 C 153.550 201, 154 200.199, 154 199.221 C 154 198.242, 154.900 196.793, 156 196 C 157.100 195.207, 158 193.758, 158 192.779 C 158 191.801, 158.450 191, 159 191 C 159.550 191, 160 190.068, 160 188.929 C 160 186.715, 162.164 184, 163.929 184 C 164.518 184, 165 183.100, 165 182 C 165 180.900, 165.450 180, 166 180 C 166.550 180, 167 178.875, 167 177.500 C 167 176.125, 167.450 175, 168 175 C 168.550 175, 169 174.199, 169 173.221 C 169 172.242, 169.900 170.793, 171 170 C 172.100 169.207, 173 167.758, 173 166.779 C 173 165.548, 173.770 165, 175.500 165 C 177.056 165, 178 164.433, 178 163.500 C 178 162.447, 179.063 162, 181.571 162 C 185.353 162, 188 160.177, 188 157.571 C 188 156.707, 188.675 156, 189.500 156 C 190.548 156, 191 154.944, 191 152.500 C 191 150.575, 191.450 149, 192 149 C 192.550 149, 193 147.650, 193 146 C 193 144.350, 192.550 143, 192 143 C 191.450 143, 191 142.100, 191 141 C 191 139.900, 191.450 139, 192 139 C 192.550 139, 193 137.425, 193 135.500 C 193 133.575, 193.450 132, 194 132 C 194.550 132, 195 131.199, 195 130.221 C 195 129.242, 195.900 127.793, 197 127 C 198.100 126.207, 199 124.726, 199 123.708 C 199 121.679, 201.236 119, 202.929 119 C 203.518 119, 204 118.100, 204 117 C 204 115.900, 204.450 115, 205 115 C 205.550 115, 206 113.974, 206 112.721 C 206 111.467, 206.900 109.793, 208 109 C 209.100 108.207, 210 106.758, 210 105.779 C 210 104.801, 210.450 104, 211 104 C 211.550 104, 212 103.100, 212 102 C 212 100.900, 212.450 100, 213 100 C 213.550 100, 214 98.875, 214 97.500 C 214 95.944, 214.567 95, 215.500 95 C 216.738 95, 217 93.167, 217 84.500 C 217 75.833, 216.738 74, 215.500 74 C 214.675 74, 214 73.518, 214 72.929 C 214 71.422, 211.406 69, 209.792 69 C 209.049 69, 207.793 68.100, 207 67 C 206.063 65.700, 204.411 65, 202.279 65 C 200.476 65, 199 64.550, 199 64 C 199 63.450, 197.650 63, 196 63 C 194.350 63, 193 62.550, 193 62 C 193 61.450, 191.875 61, 190.500 61 C 188.944 61, 188 60.433, 188 59.500 C 188 58.500, 187 58, 185 58 C 183.350 58, 182 57.550, 182 57 C 182 56.450, 181.100 56, 180 56 C 178.900 56, 178 55.550, 178 55 C 178 54.450, 176.425 54, 174.500 54 C 172.575 54, 171 53.550, 171 53 C 171 52.450, 169.650 52, 168 52 C 166.350 52, 165 51.550, 165 51 C 165 50.450, 163.875 50, 162.500 50 C 161.125 50, 160 49.550, 160 49 C 160 48.450, 159.100 48, 158 48 C 156.889 48, 156 47.333, 156 46.500 C 156 45.452, 154.944 45, 152.500 45 C 150.575 45, 149 44.550, 149 44 C 149 43.450, 147.650 43, 146 43 C 144.350 43, 143 42.550, 143 42 C 143 41.450, 142.100 41, 141 41 C 139.900 41, 139 40.550, 139 40 C 139 39.436, 136.167 39, 132.500 39 C 128.833 39, 126 39.436, 126 40 M 87 103 C 87 103.550, 86.518 104, 85.929 104 C 84.335 104, 82 106.633, 82 108.429 C 82 109.293, 81.550 110, 81 110 C 80.450 110, 80 111.026, 80 112.279 C 80 113.533, 79.100 115.207, 78 116 C 76.900 116.793, 76 118.049, 76 118.792 C 76 120.406, 73.578 123, 72.071 123 C 71.482 123, 71 123.494, 71 124.099 C 71 124.703, 69.650 126.459, 68 128 C 66.350 129.541, 65 131.423, 65 132.180 C 65 132.938, 64.100 134.207, 63 135 C 61.900 135.793, 61 137.017, 61 137.721 C 61 138.424, 60.325 139, 59.500 139 C 58.675 139, 58 139.450, 58 140 C 58 140.550, 59.832 141, 62.071 141 C 66.046 141, 69 142.705, 69 145 C 69 146.443, 71.512 149, 72.929 149 C 73.518 149, 74 149.675, 74 150.500 C 74 151.500, 75 152, 77 152 C 79 152, 80 151.500, 80 150.500 C 80 149.667, 80.889 149, 82 149 C 83.100 149, 84 148.550, 84 148 C 84 147.450, 85.125 147, 86.500 147 C 87.875 147, 89 146.550, 89 146 C 89 145.450, 89.900 145, 91 145 C 92.100 145, 93 144.550, 93 144 C 93 143.450, 93.900 143, 95 143 C 96.100 143, 97 142.550, 97 142 C 97 141.450, 97.932 141, 99.071 141 C 101.285 141, 104 138.836, 104 137.071 C 104 136.468, 105.967 136, 108.500 136 C 111.033 136, 113 136.468, 113 137.071 C 113 139.668, 116.027 141, 121.929 141 C 125.310 141, 128 140.557, 128 140 C 128 139.450, 128.900 139, 130 139 C 131.111 139, 132 138.333, 132 137.500 C 132 136.452, 133.056 136, 135.500 136 C 137.425 136, 139 135.550, 139 135 C 139 133.482, 143.948 133.805, 145.571 135.429 C 146.357 136.214, 147 137.146, 147 137.500 C 147 138.438, 149.714 141, 150.708 141 C 151.176 141, 152.207 141.900, 153 143 C 154.242 144.723, 155.589 145, 162.721 145 C 167.574 145, 171 145.414, 171 146 C 171 146.550, 171.900 147, 173 147 C 174.100 147, 175 147.450, 175 148 C 175 148.550, 175.675 149, 176.500 149 C 177.351 149, 178 149.897, 178 151.071 C 178 152.985, 180.097 156, 181.429 156 C 181.743 156, 182 155.100, 182 154 C 182 152.900, 182.450 152, 183 152 C 183.550 152, 184 150.875, 184 149.500 C 184 148.125, 184.450 147, 185 147 C 185.550 147, 186 145.200, 186 143 C 186 140.800, 185.550 139, 185 139 C 184.450 139, 184 138.325, 184 137.500 C 184 136.675, 183.199 136, 182.221 136 C 181.242 136, 179.793 135.100, 179 134 C 178.063 132.700, 176.411 132, 174.279 132 C 172.476 132, 171 131.550, 171 131 C 171 130.450, 170.100 130, 169 130 C 167.900 130, 167 129.550, 167 129 C 167 128.450, 165.425 128, 163.500 128 C 161.575 128, 160 127.550, 160 127 C 160 126.450, 158.650 126, 157 126 C 155 126, 154 125.500, 154 124.500 C 154 123.567, 153.056 123, 151.500 123 C 150.125 123, 149 122.550, 149 122 C 149 121.450, 147.650 121, 146 121 C 144.350 121, 143 120.550, 143 120 C 143 119.450, 142.100 119, 141 119 C 139.900 119, 139 118.550, 139 118 C 139 117.450, 137.425 117, 135.500 117 C 133.575 117, 132 116.550, 132 116 C 132 115.450, 130.650 115, 129 115 C 127.350 115, 126 114.550, 126 114 C 126 113.450, 124.875 113, 123.500 113 C 121.944 113, 121 112.433, 121 111.500 C 121 110.500, 120 110, 118 110 C 116.350 110, 115 109.550, 115 109 C 115 108.450, 113.425 108, 111.500 108 C 109.575 108, 108 107.550, 108 107 C 108 106.450, 107.100 106, 106 106 C 104.900 106, 104 105.550, 104 105 C 104 104.450, 102.425 104, 100.500 104 C 98.575 104, 97 103.550, 97 103 C 97 102.450, 94.750 102, 92 102 C 89.250 102, 87 102.450, 87 103 M 63 156 C 63 157.100, 62.550 158, 62 158 C 61.450 158, 61 158.450, 61 159 C 61 159.550, 61.900 160, 63 160 C 64.100 160, 65 160.450, 65 161 C 65 161.550, 65.900 162, 67 162 C 68.111 162, 69 162.667, 69 163.500 C 69 164.433, 69.944 165, 71.500 165 C 72.875 165, 74 165.450, 74 166 C 74 166.550, 75.350 167, 77 167 C 78.650 167, 80 167.450, 80 168 C 80 168.550, 81.575 169, 83.500 169 C 85.425 169, 87 169.450, 87 170 C 87 170.550, 87.900 171, 89 171 C 90.100 171, 91 171.450, 91 172 C 91 172.550, 91.900 173, 93 173 C 94.100 173, 95 173.450, 95 174 C 95 174.550, 96.575 175, 98.500 175 C 100.944 175, 102 175.452, 102 176.500 C 102 177.333, 102.889 178, 104 178 C 105.100 178, 106 178.450, 106 179 C 106 179.550, 107.575 180, 109.500 180 C 111.425 180, 113 180.450, 113 181 C 113 181.550, 114.350 182, 116 182 C 117.650 182, 119 182.450, 119 183 C 119 183.550, 119.900 184, 121 184 C 122.100 184, 123 184.450, 123 185 C 123 185.550, 124.125 186, 125.500 186 C 126.875 186, 128 186.450, 128 187 C 128 187.550, 129.350 188, 131 188 C 133 188, 134 188.500, 134 189.500 C 134 190.433, 134.944 191, 136.500 191 C 137.875 191, 139 191.450, 139 192 C 139 192.550, 140.350 193, 142 193 C 144.506 193, 145 192.602, 145 190.583 C 145 189.254, 145.550 187.983, 146.222 187.759 C 148.534 186.989, 142.318 182, 139.045 182 C 137.370 182, 136 181.550, 136 181 C 136 180.450, 135.100 180, 134 180 C 132.900 180, 132 179.550, 132 179 C 132 178.450, 130.650 178, 129 178 C 127 178, 126 177.500, 126 176.500 C 126 175.567, 125.056 175, 123.500 175 C 122.125 175, 121 174.550, 121 174 C 121 173.450, 119.650 173, 118 173 C 116.350 173, 115 172.550, 115 172 C 115 171.450, 113.875 171, 112.500 171 C 111.125 171, 110 170.550, 110 170 C 110 169.450, 108.650 169, 107 169 C 105.350 169, 104 168.550, 104 168 C 104 167.450, 103.100 167, 102 167 C 100.900 167, 100 166.550, 100 166 C 100 165.450, 98.875 165, 97.500 165 C 95.944 165, 95 164.433, 95 163.500 C 95 162.500, 94 162, 92 162 C 90.350 162, 89 161.550, 89 161 C 89 160.450, 87.425 160, 85.500 160 C 83.575 160, 82 159.550, 82 159 C 82 158.450, 81.100 158, 80 158 C 78.900 158, 78 157.550, 78 157 C 78 156.450, 77.100 156, 76 156 C 74.900 156, 74 155.550, 74 155 C 74 154.450, 71.525 154, 68.500 154 C 63.667 154, 63 154.242, 63 156 M 53.250 170.496 C 52.563 171.277, 52 174.442, 52 177.529 C 52 183.306, 53.408 186, 56.429 186 C 57.293 186, 58 186.450, 58 187 C 58 187.550, 58.675 188, 59.500 188 C 60.325 188, 61 188.675, 61 189.500 C 61 190.500, 62 191, 64 191 C 65.650 191, 67 191.450, 67 192 C 67 192.550, 68.575 193, 70.500 193 C 72.425 193, 74 193.450, 74 194 C 74 194.550, 74.900 195, 76 195 C 77.100 195, 78 195.450, 78 196 C 78 196.550, 79.350 197, 81 197 C 82.650 197, 84 197.450, 84 198 C 84 198.550, 85.382 199, 87.071 199 C 90.135 199, 93 200.898, 93 202.929 C 93 203.518, 94.575 204, 96.500 204 C 98.425 204, 100 204.450, 100 205 C 100 205.550, 101.350 206, 103 206 C 104.650 206, 106 206.450, 106 207 C 106 207.550, 106.900 208, 108 208 C 109.100 208, 110 208.450, 110 209 C 110 209.550, 111.575 210, 113.500 210 C 115.425 210, 117 210.450, 117 211 C 117 211.550, 118.350 212, 120 212 C 121.650 212, 123 212.450, 123 213 C 123 213.550, 123.675 214, 124.500 214 C 125.325 214, 126 214.675, 126 215.500 C 126 216.633, 127.222 217, 131 217 C 135.667 217, 136 216.833, 136 214.500 C 136 212.944, 136.567 212, 137.500 212 C 138.652 212, 139 210.722, 139 206.500 C 139 202.278, 138.652 201, 137.500 201 C 136.675 201, 136 200.550, 136 200 C 136 199.450, 134.650 199, 133 199 C 131.350 199, 130 198.550, 130 198 C 130 197.450, 129.100 197, 128 197 C 126.900 197, 126 196.550, 126 196 C 126 195.450, 124.425 195, 122.500 195 C 120.575 195, 119 194.550, 119 194 C 119 193.450, 118.100 193, 117 193 C 115.900 193, 115 192.550, 115 192 C 115 191.450, 113.425 191, 111.500 191 C 109.056 191, 108 190.548, 108 189.500 C 108 188.667, 107.111 188, 106 188 C 104.900 188, 104 187.550, 104 187 C 104 186.450, 102.425 186, 100.500 186 C 98.575 186, 97 185.550, 97 185 C 97 184.450, 96.100 184, 95 184 C 93.900 184, 93 183.550, 93 183 C 93 182.450, 91.650 182, 90 182 C 88.350 182, 87 181.550, 87 181 C 87 180.450, 85.875 180, 84.500 180 C 83.125 180, 82 179.550, 82 179 C 82 178.450, 80.650 178, 79 178 C 77 178, 76 177.500, 76 176.500 C 76 175.567, 75.056 175, 73.500 175 C 72.125 175, 71 174.550, 71 174 C 71 173.450, 69.650 173, 68 173 C 66.350 173, 65 172.550, 65 172 C 65 171.450, 64.100 171, 63 171 C 61.900 171, 61 170.550, 61 170 C 61 168.477, 54.671 168.882, 53.250 170.496" stroke="none" fill="black" fill-rule="evenodd"/>
</svg>